<svg width="32" height="32" viewBox="0 0 32 32" fill="none" xmlns="http://www.w3.org/2000/svg">
<rect width="32" height="32" rx="16" fill="#333333"/>
<path d="M23.2532 12.6595C23.2626 12.8019 23.2626 12.9503 23.2626 13.0956C23.2626 17.5413 19.756 22.6623 13.348 22.6623C11.372 22.6623 9.54025 22.1081 7.99707 21.1542C8.27936 21.1844 8.5491 21.1965 8.83766 21.1965C10.4687 21.1965 11.9679 20.6636 13.163 19.7611C11.6323 19.7308 10.3463 18.7617 9.90722 17.4292C10.4436 17.505 10.9266 17.505 11.4786 17.3687C10.6905 17.2141 9.98211 16.8008 9.4738 16.1991C8.9655 15.5973 8.68864 14.8442 8.69025 14.0677V14.0253C9.15132 14.2767 9.69394 14.4311 10.2617 14.4523C9.7844 14.1452 9.39301 13.7292 9.12218 13.2411C8.85135 12.753 8.70945 12.2079 8.70907 11.6541C8.70907 11.0272 8.87844 10.4549 9.18268 9.95822C10.0575 10.998 11.1491 11.8484 12.3865 12.4541C13.624 13.0599 14.9797 13.4074 16.3654 13.4742C15.8729 11.1877 17.6419 9.3374 19.7685 9.3374C20.7722 9.3374 21.6755 9.74321 22.3122 10.3973C23.0995 10.255 23.8523 9.97033 24.5235 9.58876C24.2632 10.3671 23.7174 11.0242 22.9929 11.4391C23.6954 11.3664 24.3729 11.1787 25.0002 10.9152C24.5266 11.5875 23.9338 12.1841 23.2532 12.6595Z" fill="white"/>
</svg>
